<?xml version="1.0"?>
<svg xmlns="http://www.w3.org/2000/svg" xmlns:xlink="http://www.w3.org/1999/xlink" xmlns:svgjs="http://svgjs.com/svgjs" version="1.1" width="512" height="512" x="0" y="0" viewBox="0 0 512 512" style="enable-background:new 0 0 512 512" xml:space="preserve" class=""><g><g xmlns="http://www.w3.org/2000/svg"><circle cx="256" cy="256" fill="#ffff00" r="256" data-original="#ff7038" style=""/><path d="m256 0c141.159 0 256 114.841 256 256s-114.841 256-256 256z" fill="#ffff00" data-original="#ff405c" style="" class=""/><path d="m272.066 192.8h-56.233c-7.333 0-13.59 5.301-14.796 12.534l-16.067 96.4c-1.525 9.144 5.54 17.466 14.796 17.466h56.234c8.284 0 15-6.716 15-15s-6.716-15-15-15h-38.526l3.033-18.2h35.493c8.284 0 15-6.716 15-15s-6.716-15-15-15h-30.493l3.033-18.2h43.526c8.284 0 15-6.716 15-15s-6.715-15-15-15z" fill="#000000" data-original="#f5fafa" style="" class=""/><path d="m162.066 193.004c-8.172-1.36-15.9 4.158-17.262 12.33l-8.483 50.9-27.571-55.142c-2.906-5.811-9.218-9.09-15.647-8.125-6.425.966-11.498 5.959-12.565 12.368l-16.067 96.4c-1.362 8.171 4.158 15.9 12.33 17.262 11.646 1.941 16.565-8.151 17.262-12.33l8.483-50.9 27.571 55.142c2.906 5.812 9.224 9.089 15.647 8.125 6.425-.966 11.498-5.959 12.565-12.368l16.067-96.4c1.362-8.172-4.158-15.9-12.33-17.262z" fill="#000000" data-original="#f5fafa" style="" class=""/><g fill="#e1ebf0"><path d="m439.441 194.383c-7.41-3.705-16.419-.701-20.124 6.708l-28.649 57.297-7.492-37.464c-1.216-6.077-6.043-10.78-12.148-11.838-6.103-1.055-12.234 1.748-15.423 7.062l-20.338 33.896v-42.244c0-8.284-6.716-15-15-15s-15 6.716-15 15v96.4c0 6.742 4.498 12.656 10.996 14.456 6.481 1.795 13.389-.943 16.866-6.738l28.238-47.063 8.457 42.288c1.257 6.283 6.366 11.075 12.718 11.925 6.351.855 12.542-2.427 15.407-8.159l48.2-96.4c3.705-7.411.703-16.421-6.708-20.126z" fill="#000000" data-original="#e1ebf0" style="" class=""/><g><path d="m271 256c0-8.284-6.716-15-15-15v30c8.284 0 15-6.716 15-15z" fill="#000000" data-original="#000000" style="" class=""/><path d="m271 304.2c0-8.284-6.716-15-15-15v30c8.284 0 15-6.716 15-15z" fill="#000000" data-original="#000000" style="" class=""/><path d="m272.066 192.8h-16.066v30h16.066c8.284 0 15-6.716 15-15s-6.715-15-15-15z" fill="#000000" data-original="#000000" style="" class=""/></g></g></g></g></svg>
