<?xml version="1.0"?>
<svg xmlns="http://www.w3.org/2000/svg" xmlns:xlink="http://www.w3.org/1999/xlink" xmlns:svgjs="http://svgjs.com/svgjs" version="1.1" width="512" height="512" x="0" y="0" viewBox="0 0 508 508" style="enable-background:new 0 0 512 512" xml:space="preserve" class=""><g>
<circle xmlns="http://www.w3.org/2000/svg" style="" cx="254" cy="254" r="254" fill="#ff0000" data-original="#ffd05b" class=""/>
<path xmlns="http://www.w3.org/2000/svg" style="" d="M239.6,507.6c4.8,0.4,9.6,0.4,14.4,0.4s9.6,0,14.4-0.4V115.2h-28.8L239.6,507.6L239.6,507.6z" fill="#ff0000" data-original="#324a5e" class=""/>
<path xmlns="http://www.w3.org/2000/svg" style="" d="M428.4,375.2H79.6c-10,0-18-8-18-18v-190c0-10,8-18,18-18H428c10,0,18,8,18,18v190.4  C446.4,367.2,438,375.2,428.4,375.2z" fill="#ff0000" data-original="#ffffff" class=""/>
<g xmlns="http://www.w3.org/2000/svg">
	<path style="" d="M172,259.6c0-26,20.4-47.2,45.2-47.2s45.2,21.2,45.2,47.2s-20.4,47.2-45.2,47.2   C192.4,306.8,172,285.6,172,259.6z M188,259.6c0,17.2,13.2,31.2,29.2,31.2c16.4,0,29.6-14,29.6-31.2s-13.2-31.2-29.6-31.2   C201.2,228,188,242,188,259.6z" fill="#ffff00" data-original="#4cdbc4" class=""/>
	<path style="" d="M281.2,306.8c-4.4,0-8-3.6-8-8v-78.4c0-4.4,3.6-8,8-8s8,3.6,8,8v70.8h27.6c4.4,0,8,3.6,8,8   s-3.6,8-8,8h-35.6V306.8z" fill="#ffff00" data-original="#4cdbc4" class=""/>
	<path style="" d="M343.2,306.8c-4.4,0-8-3.6-8-8v-78.4c0-4.4,3.6-8,8-8H366c0.4,0,40,0,40,47.2s-39.6,47.2-40,47.2   L343.2,306.8L343.2,306.8z M350.8,290.8H366c0.4,0,6.4,0,12.4-4c8-4.8,11.6-14.4,11.6-27.2c0-13.2-4-22.8-12.4-27.6   c-6-3.6-12-3.6-12-3.6h-14.8L350.8,290.8L350.8,290.8z" fill="#ffff00" data-original="#4cdbc4" class=""/>
	<path style="" d="M134.4,251.6c-6.4,0-11.6-5.2-11.6-11.6c0-6.4,5.2-11.6,11.6-11.6c3.2,0,6.4,1.2,8.4,3.6   c2.8,3.2,8,3.2,11.2,0.4s3.2-8,0.4-11.2c-5.2-5.6-12.4-8.8-20-8.8c-15.2,0-27.6,12.4-27.6,27.6s12.4,27.6,27.6,27.6   c6.4,0,11.6,5.2,11.6,11.6s-5.2,11.6-11.6,11.6c-3.2,0-6.4-1.2-8.4-3.6c-2.8-3.2-8-3.2-11.2-0.4c-3.2,2.8-3.2,8-0.4,11.2   c5.2,5.6,12.4,8.8,20,8.8c15.2,0,27.6-12.4,27.6-27.6C161.6,264,149.6,251.6,134.4,251.6z" fill="#ffff00" data-original="#4cdbc4" class=""/>
</g>
<g xmlns="http://www.w3.org/2000/svg">
</g>
<g xmlns="http://www.w3.org/2000/svg">
</g>
<g xmlns="http://www.w3.org/2000/svg">
</g>
<g xmlns="http://www.w3.org/2000/svg">
</g>
<g xmlns="http://www.w3.org/2000/svg">
</g>
<g xmlns="http://www.w3.org/2000/svg">
</g>
<g xmlns="http://www.w3.org/2000/svg">
</g>
<g xmlns="http://www.w3.org/2000/svg">
</g>
<g xmlns="http://www.w3.org/2000/svg">
</g>
<g xmlns="http://www.w3.org/2000/svg">
</g>
<g xmlns="http://www.w3.org/2000/svg">
</g>
<g xmlns="http://www.w3.org/2000/svg">
</g>
<g xmlns="http://www.w3.org/2000/svg">
</g>
<g xmlns="http://www.w3.org/2000/svg">
</g>
<g xmlns="http://www.w3.org/2000/svg">
</g>
</g></svg>
