<?xml version="1.0" encoding="iso-8859-1"?>
<!-- Generator: Adobe Illustrator 19.0.0, SVG Export Plug-In . SVG Version: 6.00 Build 0)  -->
<svg version="1.1" id="Capa_1" xmlns="http://www.w3.org/2000/svg" xmlns:xlink="http://www.w3.org/1999/xlink" x="0px" y="0px"
	 viewBox="0 0 511.993 511.993" style="enable-background:new 0 0 511.993 511.993;" xml:space="preserve">
<linearGradient id="SVGID_1_" gradientUnits="userSpaceOnUse" x1="69.654" y1="448.2119" x2="416.1364" y2="101.7296" gradientTransform="matrix(1.0449 0 0 -1.0449 2.1993 543.3086)">
	<stop  offset="0" style="stop-color:#5B5A5F"/>
	<stop  offset="1" style="stop-color:#000000"/>
</linearGradient>
<circle style="fill:url(#SVGID_1_);" cx="255.996" cy="255.996" r="255.996"/>
<linearGradient id="SVGID_2_" gradientUnits="userSpaceOnUse" x1="176.8952" y1="274.9677" x2="316.8952" y2="274.9677" gradientTransform="matrix(1.0449 0 0 -1.0449 2.1993 543.3086)">
	<stop  offset="0" style="stop-color:#FFBD53"/>
	<stop  offset="1" style="stop-color:#FF8800"/>
</linearGradient>
<path style="fill:url(#SVGID_2_);" d="M373.975,197.153c0,0,4.212,32.658-13.57,45.761c0,0,19.576-98.368-131.842-188.937
	c6.562,13.565,10.49,30.678,10.49,49.298c0,44.002-21.87,79.672-48.848,79.672c-17.132,0-32.195-14.396-40.913-36.165
	c-8.095,13.814-48.861,87.805-41.322,164.745c9.109,92.981,95.575,123.305,148.064,146.497c0,0,88.293-22.737,128.707-90.326
	C422.654,304.284,400.352,223.53,373.975,197.153z"/>
<linearGradient id="SVGID_3_" gradientUnits="userSpaceOnUse" x1="176.8952" y1="222.9937" x2="316.8952" y2="222.9937" gradientTransform="matrix(1.0449 0 0 -1.0449 2.1993 543.3086)">
	<stop  offset="0" style="stop-color:#FFEC94"/>
	<stop  offset="1" style="stop-color:#FFCF00"/>
</linearGradient>
<path style="fill:url(#SVGID_3_);" d="M256.031,195.678c0,0,69.109,60.017,52.491,129.434c0,0,28.697-16.939,40.92-49.336
	c0,0,14.284,119.429-93.41,149.158c0,0-78.858-29.652-76.599-103.756c0,0,18.383,22.935,31.219,26.68c0,0-10.385-24.364,0.274-54.7
	C222.37,260.577,240.532,241.166,256.031,195.678z"/>
<g>
</g>
<g>
</g>
<g>
</g>
<g>
</g>
<g>
</g>
<g>
</g>
<g>
</g>
<g>
</g>
<g>
</g>
<g>
</g>
<g>
</g>
<g>
</g>
<g>
</g>
<g>
</g>
<g>
</g>
</svg>
