<?xml version="1.0"?>
<svg xmlns="http://www.w3.org/2000/svg" xmlns:xlink="http://www.w3.org/1999/xlink" xmlns:svgjs="http://svgjs.com/svgjs" version="1.1" width="512" height="512" x="0" y="0" viewBox="0 0 512 512" style="enable-background:new 0 0 512 512" xml:space="preserve" class=""><g><path xmlns="http://www.w3.org/2000/svg" d="m256 512c-68.378906 0-132.667969-26.628906-181.019531-74.980469-48.351563-48.351562-74.980469-112.640625-74.980469-181.019531s26.628906-132.667969 74.980469-181.019531c48.351562-48.351563 112.640625-74.980469 181.019531-74.980469s132.667969 26.628906 181.019531 74.980469c48.351563 48.351562 74.980469 112.640625 74.980469 181.019531s-26.628906 132.667969-74.980469 181.019531c-48.351562 48.351563-112.640625 74.980469-181.019531 74.980469zm0 0" fill="#444444" data-original="#b9e969" style="" class=""/><path xmlns="http://www.w3.org/2000/svg" d="m256.003906 0v512c68.378906 0 132.664063-26.628906 181.015625-74.980469 48.351563-48.351562 74.980469-112.640625 74.980469-181.019531s-26.628906-132.667969-74.980469-181.019531c-48.351562-48.351563-112.636719-74.980469-181.015625-74.980469zm0 0" fill="#464545" data-original="#73c570" style="" class=""/><path xmlns="http://www.w3.org/2000/svg" d="m187.035156 202.015625 13.179688-4.84375c17.890625-6.578125 31.699218-21.113281 37.351562-39.320313l17.238282-55.527343c5.027343-16.1875 22.421874-25.035157 38.464843-19.558594 13.226563 4.515625 21.605469 17.539063 20.226563 31.449219l-7.179688 72.519531 51.121094-11.085937c10.882812-2.363282 22.257812-.722657 32.035156 4.609374 14.890625 8.128907 24.15625 23.738282 24.15625 40.703126v103.390624c0 14.648438-6.921875 28.433594-18.671875 37.183594l-3.242187 2.417969c-19.042969 14.179687-42.835938 20.4375-66.386719 17.457031l-150.460937-19.03125zm0 0" fill="#ffffff" data-original="#ffffff" style="" class=""/><path xmlns="http://www.w3.org/2000/svg" d="m389.472656 180.257812c-9.777344-5.335937-21.152344-6.972656-32.035156-4.609374l-51.121094 11.085937 7.179688-72.519531c1.378906-13.910156-7-26.933594-20.222656-31.449219-14.953126-5.105469-31.074219 2.234375-37.269532 16.363281v273.511719l69.324219 8.769531c23.554687 2.976563 47.34375-3.277344 66.386719-17.460937l3.246094-2.414063c11.746093-8.75 18.671874-22.539062 18.671874-37.1875v-103.390625c-.003906-16.964843-9.269531-32.574219-24.160156-40.699219zm0 0" fill="#ffffff" data-original="#f0f6fe" style="" class=""/><path xmlns="http://www.w3.org/2000/svg" d="m133.632812 362.382812 41.230469-.003906 12.171875-160.363281h-53.40625c-11.042968 0-20 8.953125-20 20v120.367187c0 11.046876 8.957032 20.003907 20.003906 20zm0 0" fill="#ffb300" data-original="#5877a6" style="" class=""/></g></svg>
