<svg width="12" height="12" xmlns="http://www.w3.org/2000/svg">

 <g>
  <title>background</title>
  <rect fill="none" id="canvas_background" height="19" width="21" y="-1" x="-1"/>
 </g>
 <g>
  <title>Layer 1</title>
  <path stroke="null" fill="#C4C4C4" id="Fill-1" d="m7.923938,14.139895c-3.588296,0 -6.539417,-3.092055 -6.539417,-6.930468c0,-3.802872 2.917586,-6.930468 6.539417,-6.930468s6.539417,3.092055 6.539417,6.930468c-0.033535,3.838413 -2.951122,6.930468 -6.539417,6.930468l0,0zm0,-12.830251c-3.085263,0 -5.600424,2.665565 -5.600424,5.935324c0,3.269759 2.51516,5.935324 5.600424,5.935324s5.600424,-2.665565 5.600424,-5.935324c-0.033535,-3.269759 -2.548696,-5.935324 -5.600424,-5.935324l0,0z" class="st0"/>
  <polyline stroke="null" fill="#C4C4C4" points="16.975263953208923,17.141712605953217 12.279435515403748,12.28827041387558 13.039055228233337,11.497340619564056 17.700353980064392,16.386728703975677 16.975263953208923,17.141712605953217 " id="Fill-2" class="st0"/>
 </g>
</svg>