<svg width="24.000000000000004" height="24.000000000000004" xmlns="http://www.w3.org/2000/svg">

 <g>
  <title>background</title>
  <rect fill="none" id="canvas_background" height="26" width="26" y="-1" x="-1"/>
 </g>
 <g>
  <title>Layer 1</title>
  <path fill="white" stroke="null" id="svg_1" d="m17.425206,1.364225c3.0893,0 5.599737,2.769951 5.599737,6.190472c0,1.757209 -0.664169,3.340038 -1.724402,4.466798l-9.042447,10.046942l-9.200873,-10.228028c-0.96274,-1.113346 -1.559883,-2.622399 -1.559883,-4.285712c0,-3.420521 2.504344,-6.190472 5.599737,-6.190472c2.327638,0 4.320145,1.569416 5.167113,3.809521c0.834781,-2.233399 2.833381,-3.809521 5.16102,-3.809521m0,-1.032863c-2.059533,0 -3.948454,1.059691 -5.167113,2.803486c-1.218659,-1.743795 -3.10758,-2.803486 -5.167113,-2.803486c-3.601136,0 -6.532011,3.239435 -6.532011,7.223335c0,1.871226 0.645889,3.648556 1.821895,5.00335l9.21306,10.241442l0.664169,0.737759l0.664169,-0.737759l9.036354,-10.046942c1.279592,-1.361501 1.9986,-3.212607 1.9986,-5.19785c0,-3.983901 -2.930874,-7.223335 -6.532011,-7.223335l0,0z"/>
 </g>
</svg>