<svg width="25.000000000000004" height="25.000000000000004" xmlns="http://www.w3.org/2000/svg" clip-rule="evenodd">

 <g>
  <title>background</title>
  <rect fill="none" id="canvas_background" height="27" width="27" y="-1" x="-1"/>
 </g>
 <g>
  <title>Layer 1</title>
  <path stroke="null" id="svg_2" fill="#1877f2" fill-rule="nonzero" d="m25.020268,12.494731c0,-7.042266 -5.58184,-12.751141 -12.467399,-12.751141c-6.885559,0 -12.467399,5.708875 -12.467399,12.751141c0,6.364463 4.559172,11.63965 10.519368,12.596234l0,-8.910358l-3.165551,0l0,-3.685877l3.165551,0l0,-2.809236c0,-3.195755 1.861295,-4.960991 4.709122,-4.960991c1.36406,0 2.790798,0.249046 2.790798,0.249046l0,3.137976l-1.57211,0c-1.548733,0 -2.031748,0.982884 -2.031748,1.99127l0,2.391935l3.457755,0l-0.552754,3.685877l-2.905001,0l0,8.910358c5.960245,-0.956585 10.519368,-6.231771 10.519368,-12.596234z"/>
  <path stroke="null" id="svg_3" fill="#fff" fill-rule="nonzero" d="m17.29483,16.093681l0.544442,-3.631082l-3.405763,0l0,-2.356376c0,-0.993395 0.475704,-1.961668 2.001198,-1.961668l1.548471,0l0,-3.091327c0,0 -1.405333,-0.245343 -2.748835,-0.245343c-2.805006,0 -4.638314,1.738994 -4.638314,4.88724l0,2.767473l-3.117952,0l0,3.631082l3.117952,0l0,8.777896c0.625173,0.100345 1.265985,0.152604 1.91874,0.152604c0.652755,0 1.293519,-0.052258 1.91874,-0.152604l0,-8.777896l2.861321,0z"/>
 </g>
</svg>