<svg width="25" height="25" xmlns="http://www.w3.org/2000/svg">
 <defs>
  <linearGradient y2="Infinity" y1="Infinity" x2="Infinity" x1="Infinity" id="SVGID_1_">
   <stop stop-color="#FFB900" offset="0"/>
   <stop stop-color="#9100EB" offset="1"/>
  </linearGradient>
 </defs>
 <g>
  <title>background</title>
  <rect fill="none" id="canvas_background" height="27" width="27" y="-1" x="-1"/>
 </g>
 <g>
  <title>Layer 1</title>
  <circle stroke="null" id="svg_2" r="12.340168" fill="url(#SVGID_1_)" cy="12.450811" cx="12.389499"/>
  <path stroke="null" id="svg_5" fill="#FFFFFF" d="m16.216498,20.305393l-7.733894,0c-2.51996,0 -4.570182,-1.926678 -4.570182,-4.29523l0,-7.268607c0,-2.368552 2.050222,-4.29523 4.570182,-4.29523l7.733894,0c2.52017,0 4.570182,1.926678 4.570182,4.29523l0,7.268805c0,2.368353 -2.050011,4.295032 -4.570182,4.295032zm-7.733894,-14.537412c-1.744587,0 -3.163923,1.333946 -3.163923,2.973575l0,7.268805c0,1.639629 1.419336,2.973575 3.163923,2.973575l7.733894,0c1.744587,0 3.163923,-1.333946 3.163923,-2.973575l0,-7.268805c0,-1.639629 -1.419336,-2.973575 -3.163923,-2.973575l-7.733894,0z"/>
  <path stroke="null" id="svg_7" fill="#FFFFFF" d="m12.410764,17.112801c-2.300571,0 -4.172237,-1.96101 -4.172237,-4.370912c0,-2.410339 1.871665,-4.370912 4.172237,-4.370912s4.172237,1.960572 4.172237,4.370912c0,2.409902 -1.871665,4.370912 -4.172237,4.370912zm0,-7.28478c-1.533714,0 -2.781422,1.307121 -2.781422,2.913868c0,1.606966 1.247707,2.913868 2.781422,2.913868s2.781422,-1.306903 2.781422,-2.913868c0,-1.606747 -1.247499,-2.913868 -2.781422,-2.913868z"/>
  <circle stroke="null" id="svg_9" r="0.874403" fill="#FFFFFF" cy="8.246801" cx="16.640951"/>
 </g>
</svg>