<svg width="12" height="12" xmlns="http://www.w3.org/2000/svg">

 <g>
  <title>background</title>
  <rect fill="none" id="canvas_background" height="14" width="14" y="-1" x="-1"/>
 </g>
 <g>
  <title>Layer 1</title>
  <path stroke="null" id="svg_1" fill="#C4C4C4" d="m0.229156,1.927949c0,-0.302965 0.250697,-0.548561 0.559942,-0.548561l10.638891,0c0.309256,0 0.559942,0.245596 0.559942,0.548561c0,0.302965 -0.250686,0.548561 -0.559942,0.548561l-10.638891,0c-0.309245,0 -0.559942,-0.245596 -0.559942,-0.548561z"/>
  <path stroke="null" id="svg_2" fill="#C4C4C4" d="m2.77846,6.059806c0,-0.303005 0.31602,-0.548685 0.70585,-0.548685l7.76434,0.000162l0.81207,0.49797c-0.053107,-0.081019 -0.42223,0.599287 -0.81207,0.599287l-7.76434,-0.000105c-0.38983,0 -0.70585,-0.24568 -0.70585,-0.548629z"/>
  <path stroke="null" id="svg_3" fill="#C4C4C4" d="m1.055849,9.483924c-0.339238,0 -0.61425,0.25747 -0.61425,0.575095c0,0.317567 0.275012,0.575037 0.61425,0.575037l10.442252,0c0.33925,0 0.61425,-0.25747 0.61425,-0.575037c0,-0.317625 -0.275,-0.575095 -0.61425,-0.575095l-10.442252,0z"/>
 </g>
</svg>