<svg width="25" height="25" xmlns="http://www.w3.org/2000/svg" clip-rule="evenodd">

 <g>
  <title>background</title>
  <rect fill="none" id="canvas_background" height="27" width="27" y="-1" x="-1"/>
 </g>
 <g>
  <title>Layer 1</title>
  <path id="svg_2" fill="#fff" fill-rule="nonzero" d="m512.970168,256.002c0,141.373 -114.606,255.979 -255.98,255.979c-141.373,0 -255.979,-114.606 -255.979,-255.979c0,-141.374 114.606,-255.98 255.979,-255.98c141.374,0 255.98,114.606 255.98,255.98z"/>
  <path stroke="null" id="svg_3" fill="#e71d27" fill-rule="nonzero" d="m12.561333,0.001c-6.937443,0 -12.561333,5.431205 -12.561333,12.13064c0,5.139262 3.310869,9.532625 7.983722,11.300111c-0.109913,-0.959797 -0.209079,-2.435861 0.043622,-3.483701c0.228167,-0.946671 1.472926,-6.029733 1.472926,-6.029733c0,0 -0.375812,-0.726612 -0.375812,-1.801035c0,-1.686741 1.012373,-2.946015 2.272981,-2.946015c1.071598,0 1.589364,0.777078 1.589364,1.708775c0,1.040874 -0.686168,2.596878 -1.040391,4.038919c-0.295881,1.207482 0.627041,2.192109 1.860122,2.192109c2.232745,0 3.948853,-2.273376 3.948853,-5.554976c0,-2.904411 -2.161204,-4.935171 -5.246949,-4.935171c-3.574169,0 -5.672124,2.588869 -5.672124,5.264312c0,1.042675 0.415852,2.160598 0.934845,2.768319c0.102552,0.120123 0.117665,0.225461 0.087145,0.347953c-0.095437,0.383208 -0.307264,1.207103 -0.348923,1.375701c-0.054809,0.222049 -0.182092,0.269198 -0.420072,0.162249c-1.568903,-0.705289 -2.549725,-2.920237 -2.549725,-4.699428c0,-3.826631 2.878923,-7.340753 8.299769,-7.340753c4.357541,0 7.743975,2.998519 7.743975,7.005973c0,4.180791 -2.729609,7.545317 -6.518303,7.545317c-1.272826,0 -2.469499,-0.638569 -2.879021,-1.392855c0,0 -0.629936,2.316117 -0.782636,2.883703c-0.283712,1.053715 -1.049174,2.374449 -1.561248,3.180053c1.175426,0.35146 2.424405,0.540955 3.719214,0.540955c6.937688,0 12.561578,-5.430968 12.561578,-12.130782c0,-6.699435 -5.62389,-12.13064 -12.561578,-12.13064z"/>
 </g>
</svg>